<?xml version="1.0" encoding="utf-8"?>
<!-- Generator: Adobe Illustrator 26.0.3, SVG Export Plug-In . SVG Version: 6.00 Build 0)  -->
<svg version="1.1" id="Layer_1" xmlns="http://www.w3.org/2000/svg" xmlns:xlink="http://www.w3.org/1999/xlink" x="0px" y="0px"
	 viewBox="0 0 200 200" style="enable-background:new 0 0 200 200;" xml:space="preserve">
<style type="text/css">
	.st0{fill:#12A77E;}
</style>
<g>
</g>
<path class="st0" d="M160.3,128.1V37.2c0-3.6-2.9-6.5-6.5-6.5H65c-14.3,0-26,11.6-26,26v86.6c0,14.3,11.6,26,26,26h88.8
	c3.6,0,6.5-2.9,6.5-6.5v-4.3c0-2-0.9-3.9-2.4-5.1c-1.1-4.2-1.1-16,0-20.2C159.3,132,160.3,130.2,160.3,128.1L160.3,128.1z M73.7,67
	c0-0.9,0.7-1.6,1.6-1.6h57.4c0.9,0,1.6,0.7,1.6,1.6v5.4c0,0.9-0.7,1.6-1.6,1.6H75.3c-0.9,0-1.6-0.7-1.6-1.6V67z M73.7,84.3
	c0-0.9,0.7-1.6,1.6-1.6h57.4c0.9,0,1.6,0.7,1.6,1.6v5.4c0,0.9-0.7,1.6-1.6,1.6H75.3c-0.9,0-1.6-0.7-1.6-1.6V84.3z M142.2,152H65
	c-4.8,0-8.7-3.9-8.7-8.7c0-4.8,3.9-8.7,8.7-8.7h77.2C141.7,139.3,141.7,147.3,142.2,152z"/>
</svg>
