<?xml version="1.0" encoding="utf-8"?>
<!-- Generator: Adobe Illustrator 26.0.3, SVG Export Plug-In . SVG Version: 6.00 Build 0)  -->
<svg version="1.1" id="Layer_1" xmlns="http://www.w3.org/2000/svg" xmlns:xlink="http://www.w3.org/1999/xlink" x="0px" y="0px"
	 viewBox="0 0 200 200" style="enable-background:new 0 0 200 200;" xml:space="preserve">
<style type="text/css">
	.st0{fill:#12A77E;}
</style>
<g>
</g>
<path class="st0" d="M164.5,129.9V33.2c0-3.8-3.1-6.9-6.9-6.9H63.1c-15.3,0-27.6,12.4-27.6,27.6v92.1c0,15.3,12.4,27.6,27.6,27.6
	h94.5c3.8,0,6.9-3.1,6.9-6.9v-4.6c0-2.2-1-4.1-2.6-5.4c-1.2-4.4-1.2-17.1,0-21.5C163.5,134.1,164.5,132.1,164.5,129.9L164.5,129.9z
	 M72.4,64.9c0-1,0.8-1.7,1.7-1.7h61c1,0,1.7,0.8,1.7,1.7v5.8c0,1-0.8,1.7-1.7,1.7h-61c-1,0-1.7-0.8-1.7-1.7V64.9z M72.4,83.3
	c0-1,0.8-1.7,1.7-1.7h61c1,0,1.7,0.8,1.7,1.7v5.8c0,1-0.8,1.7-1.7,1.7h-61c-1,0-1.7-0.8-1.7-1.7V83.3z M145.3,155.3H63.1
	c-5.1,0-9.2-4.1-9.2-9.2c0-5.1,4.1-9.2,9.2-9.2h82.2C144.8,141.8,144.8,150.4,145.3,155.3z"/>
</svg>
