<?xml version="1.0" encoding="utf-8"?>
<!-- Generator: Adobe Illustrator 24.0.2, SVG Export Plug-In . SVG Version: 6.00 Build 0)  -->
<svg version="1.1" id="Layer_1" xmlns="http://www.w3.org/2000/svg" xmlns:xlink="http://www.w3.org/1999/xlink" x="0px" y="0px"
	 viewBox="0 0 200 200" style="enable-background:new 0 0 200 200;" xml:space="preserve">
<style type="text/css">
	.st0{fill:none;}
	.st1{fill:#CC6700;}
</style>
<circle class="st0" cx="100" cy="100" r="100"/>
<path class="st1" d="M75.9,91.6l9.5,28.1h29.7l9.1-28.1l-24-17.4L75.9,91.6z M99.9,21.2c-43.2,0-78.5,35.3-78.5,78.8
	s35.3,78.8,78.8,78.8s78.5-35.3,78.5-78.5S143.7,21.2,99.9,21.2z M149.6,132.3l-26.3-0.4l-7.7,25.1c-4.9,1.3-10,2.1-15.4,2.1
	s-10.5-0.7-15.4-2.1l-7.7-25.1l-26.3,0.4c-5.6-8.5-9-18.6-9.5-29.3l21.4-15.1L54.3,63c6.5-8.1,15.1-14.4,25-18.1l21.1,15.8
	l21.1-15.8c9.8,3.8,18.5,10,25,18.1l-8.5,24.9l21.4,15.1C158.6,113.7,155.2,123.8,149.6,132.3z"/>
</svg>

