<?xml version="1.0" encoding="utf-8"?>
<!-- Generator: Adobe Illustrator 26.0.3, SVG Export Plug-In . SVG Version: 6.00 Build 0)  -->
<svg version="1.1" id="Layer_1" xmlns="http://www.w3.org/2000/svg" xmlns:xlink="http://www.w3.org/1999/xlink" x="0px" y="0px"
	 viewBox="0 0 200 200" style="enable-background:new 0 0 200 200;" xml:space="preserve">
<style type="text/css">
	.st0{fill:none;}
	.st1{fill:#CC6700;}
</style>
<circle class="st0" cx="100" cy="100" r="100"/>
<path class="st1" d="M74.4,93.1l10.2,30.3h32l9.8-30.3l-25.9-18.7L74.4,93.1z M100.2,17.3c-46.6,0-84.6,38-84.6,84.9
	s38,84.9,84.9,84.9s84.6-38,84.6-84.6S147.4,17.3,100.2,17.3z M153.8,137l-28.3-0.4l-8.3,27.1c-5.3,1.4-10.8,2.3-16.6,2.3
	s-11.3-0.8-16.6-2.3l-8.3-27.1L47.4,137c-6-9.2-9.7-20-10.2-31.6l23.1-16.3l-9.2-26.8c7-8.7,16.3-15.5,26.9-19.5l22.7,17l22.7-17
	c10.6,4.1,19.9,10.8,26.9,19.5l-9.2,26.8l23.1,16.3C163.5,117,159.8,127.8,153.8,137z"/>
</svg>
