<?xml version="1.0" encoding="utf-8"?>
<!-- Generator: Adobe Illustrator 26.0.3, SVG Export Plug-In . SVG Version: 6.00 Build 0)  -->
<svg version="1.1" id="Layer_1" xmlns="http://www.w3.org/2000/svg" xmlns:xlink="http://www.w3.org/1999/xlink" x="0px" y="0px"
	 viewBox="0 0 200 200" style="enable-background:new 0 0 200 200;" xml:space="preserve">
<style type="text/css">
	.st0{fill:none;}
	.st1{fill:#053866;}
</style>
<circle class="st0" cx="100" cy="100" r="100"/>
<path class="st1" d="M166.8,114.8h-14.8v14.8h5.2c1.2,0,2.2,0.8,2.2,1.9v3.7c0,1-1,1.9-2.2,1.9H42.9c-1.2,0-2.2-0.8-2.2-1.9v-3.7
	c0-1,1-1.9,2.2-1.9h5.2v-14.8H33.2c-4.1,0-7.4,3.3-7.4,7.4v22.3c0,4.1,3.3,7.4,7.4,7.4h133.6c4.1,0,7.4-3.3,7.4-7.4v-22.3
	C174.2,118.2,170.9,114.8,166.8,114.8z M144.5,129.7V55.5c0-4.2-3.4-7.5-7.5-7.5H63c-4.2,0-7.5,3.4-7.5,7.5v74.1H144.5z M74.8,87.5
	l5.9-5.9c1-1,2.6-1,3.5,0l9.6,9.6l22.1-21.9c1-1,2.6-1,3.5,0l5.9,5.9c1,1,1,2.6,0,3.5l-29.7,29.5c-1,1-2.6,1-3.5,0L74.8,91
	C73.8,90,73.8,88.5,74.8,87.5L74.8,87.5z"/>
</svg>
