<?xml version="1.0" encoding="utf-8"?>
<!-- Generator: Adobe Illustrator 26.0.3, SVG Export Plug-In . SVG Version: 6.00 Build 0)  -->
<svg version="1.1" id="Layer_1" xmlns="http://www.w3.org/2000/svg" xmlns:xlink="http://www.w3.org/1999/xlink" x="0px" y="0px"
	 viewBox="0 0 200 200" style="enable-background:new 0 0 200 200;" xml:space="preserve">
<style type="text/css">
	.st0{fill:#053866;}
</style>
<g>
</g>
<path class="st0" d="M172.8,116.2h-16.2v16.2h5.7c1.3,0,2.4,0.9,2.4,2v4c0,1.1-1.1,2-2.4,2H37.7c-1.3,0-2.4-0.9-2.4-2v-4
	c0-1.1,1.1-2,2.4-2h5.7v-16.2H27.2c-4.5,0-8.1,3.6-8.1,8.1v24.3c0,4.5,3.6,8.1,8.1,8.1h145.7c4.5,0,8.1-3.6,8.1-8.1v-24.3
	C180.9,119.8,177.3,116.2,172.8,116.2z M148.6,132.4V51.5c0-4.5-3.7-8.2-8.2-8.2H59.6c-4.5,0-8.2,3.7-8.2,8.2v80.8H148.6z
	 M72.5,86.3l6.4-6.4c1.1-1.1,2.8-1.1,3.8,0l10.4,10.5l24.1-23.9c1.1-1.1,2.8-1.1,3.8,0l6.4,6.4c1.1,1.1,1.1,2.8,0,3.8l-32.4,32.2
	c-1.1,1.1-2.8,1.1-3.8,0L72.5,90.2C71.4,89.1,71.4,87.4,72.5,86.3L72.5,86.3z"/>
</svg>
