<?xml version="1.0" encoding="UTF-8" standalone="no"?>
<svg
   aria-hidden="true"
   focusable="false"
   data-prefix="fas"
   data-icon="user-alt"
   class="svg-inline--fa fa-user-alt fa-w-16"
   role="img"
   viewBox="0 0 90 90"
   version="1.1"
   id="svg4"
   sodipodi:docname="user-alt-solid.svg"
   width="90"
   height="90"
   inkscape:export-filename="/Users/warsco/Downloads/basic_image.png"
   inkscape:export-xdpi="300"
   inkscape:export-ydpi="300"
   inkscape:version="1.1.1 (c3084ef, 2021-09-22)"
   xmlns:inkscape="http://www.inkscape.org/namespaces/inkscape"
   xmlns:sodipodi="http://sodipodi.sourceforge.net/DTD/sodipodi-0.dtd"
   xmlns="http://www.w3.org/2000/svg"
   xmlns:svg="http://www.w3.org/2000/svg">
  <defs
     id="defs8" />
  <sodipodi:namedview
     id="namedview6"
     pagecolor="#ffffff"
     bordercolor="#666666"
     borderopacity="1.0"
     inkscape:pageshadow="2"
     inkscape:pageopacity="0.0"
     inkscape:pagecheckerboard="0"
     showgrid="false"
     inkscape:zoom="2.1915612"
     inkscape:cx="-56.58067"
     inkscape:cy="61.371775"
     inkscape:window-width="1440"
     inkscape:window-height="847"
     inkscape:window-x="0"
     inkscape:window-y="25"
     inkscape:window-maximized="0"
     inkscape:current-layer="svg4" />
  <rect
     style="fill:#c1c8d0;stroke-width:0.407197;fill-opacity:1"
     id="rect847"
     width="90"
     height="90"
     x="0"
     y="0" />
  <path
     fill="currentColor"
     d="m 45,45.6875 c 6.676757,0 12.09375,-5.416993 12.09375,-12.09375 C 57.09375,26.916993 51.676757,21.5 45,21.5 c -6.676757,0 -12.09375,5.416993 -12.09375,12.09375 0,6.676757 5.416993,12.09375 12.09375,12.09375 z M 55.75,48.375 H 51.122461 C 49.258007,49.231641 47.183593,49.71875 45,49.71875 c -2.183594,0 -4.249609,-0.487109 -6.122461,-1.34375 H 34.25 c -5.937695,0 -10.75,4.812305 -10.75,10.75 v 1.34375 c 0,2.225586 1.805664,4.03125 4.03125,4.03125 h 34.9375 C 64.694336,64.5 66.5,62.694336 66.5,60.46875 V 59.125 c 0,-5.937695 -4.812305,-10.75 -10.75,-10.75 z"
     id="path2"
     style="fill:#ffffff;stroke-width:0.0839845" />
</svg>
