<?xml version="1.0" encoding="utf-8"?>
<!-- Generator: Adobe Illustrator 26.0.1, SVG Export Plug-In . SVG Version: 6.00 Build 0)  -->
<svg version="1.1" id="Layer_1" xmlns="http://www.w3.org/2000/svg" xmlns:xlink="http://www.w3.org/1999/xlink" x="0px" y="0px"
	 viewBox="0 0 210 70" style="enable-background:new 0 0 210 70;" xml:space="preserve">
<style type="text/css">
	.st0{enable-background:new    ;}
	.st1{fill:#1D2129;}
	.st2{fill:#A9A9A9;}
</style>
<g class="st0">
	<path class="st1" d="M46.7,34.6c-1.7,0.5-3.8,0.9-6.2,1.3c-2.4,0.4-4.9,0.7-7.3,1v8.6c0,2.4-0.3,4.4-0.8,6.1
		c-0.5,1.7-1.1,2.9-1.9,3.7l-1.8-0.3c0.1-0.5,0.2-1.1,0.4-1.8s0.2-1.5,0.3-2.3c0.1-0.8,0.2-1.7,0.2-2.6s0.1-1.7,0.1-2.6v-8.5
		c-0.9,0.1-1.8,0.2-2.6,0.2c-0.8,0-1.6,0.1-2.4,0.2c-1,0.1-1.7,0.2-2.3,0.3c-0.6,0.1-1.2,0.2-1.8,0.2c-0.2,0-0.5-0.1-1-0.2
		c-0.4-0.1-0.9-0.3-1.4-0.5s-1-0.4-1.5-0.5c-0.5-0.2-0.8-0.4-1-0.5c0-0.5,0.1-0.9,0.3-1.2c0.2-0.3,0.4-0.5,0.5-0.5
		c0.1,0,0.3,0,0.7,0.1c0.4,0,0.8,0.1,1.2,0.1c0.5,0,0.9,0.1,1.4,0.1c0.5,0,0.9,0,1.2,0c0.3,0,0.8,0,1.5,0s1.4,0,2.1,0
		c1.7-0.1,3.6-0.2,6-0.4c2.3-0.2,4.6-0.5,6.9-0.8c0.3-1.3,0.6-2.6,0.9-4c0.3-1.4,0.5-2.9,0.7-4.5c-2.4,0.6-4.5,1-6.5,1.3
		c-1.9,0.3-3.7,0.5-5.4,0.8c-0.5,0.1-1,0.1-1.3,0.2S25.4,28,25.1,28c-0.2,0.1-0.5,0.1-0.7,0.2c-0.2,0.1-0.5,0.1-0.8,0.1
		c-0.2,0-0.5,0-0.9-0.1c-0.4-0.1-0.8-0.2-1.3-0.3c-0.5-0.1-0.9-0.3-1.3-0.4c-0.4-0.2-0.7-0.3-1-0.5c0-0.5,0.1-0.9,0.2-1.2
		c0.1-0.3,0.3-0.5,0.5-0.5c0.1,0,0.2,0,0.5,0s0.6,0,1,0c0.4,0,0.8,0,1.2,0c0.4,0,0.8,0,1,0c0.7,0,1.3,0,1.8,0c0.5,0,1.1-0.1,1.9-0.1
		c1.4-0.1,3.1-0.3,5.2-0.6c2.1-0.3,4.4-0.8,6.9-1.3c0.1-0.8,0.1-1.6,0.2-2.4c0.1-0.8,0.1-1.7,0.1-2.5H29c-0.4,0-0.8,0-1.1,0.1
		c-0.3,0.1-0.6,0.1-0.9,0.2c-0.3,0.1-0.6,0.1-0.9,0.2c-0.3,0-0.6,0.1-1,0.1c-0.3,0-0.8-0.1-1.2-0.2c-0.5-0.1-1-0.3-1.5-0.5
		c-0.5-0.2-0.9-0.4-1.2-0.5c-0.4-0.2-0.6-0.3-0.7-0.4c0-0.1,0-0.2,0.1-0.5c0.1-0.2,0.1-0.4,0.2-0.6c0.1-0.2,0.1-0.4,0.2-0.5
		c0.1-0.1,0.1-0.2,0.2-0.2c0.1,0,0.5,0,1,0.1s1.2,0.1,2,0.1c0.8,0.1,1.6,0.1,2.4,0.1c0.9,0,1.7,0.1,2.5,0.1h8.2c0.5,0,1-0.1,1.6-0.2
		s1-0.2,1.3-0.2c0.1,0,0.3,0,0.6,0.1c0.3,0.1,0.6,0.1,0.9,0.2c0.3,0,0.6,0.1,0.9,0.2c0.3,0,0.5,0.1,0.6,0.1c0.2,0.1,0.4,0.2,0.5,0.4
		c0.1,0.2,0.2,0.4,0.1,0.6c-0.3,3.4-0.8,6.5-1.4,9.4c-0.6,2.8-1.3,5.3-2,7.2c2.2-0.4,4.1-0.8,5.8-1.2c0.1,0.1,0.3,0.5,0.4,1
		C46.6,33.8,46.7,34.3,46.7,34.6z M54,11.5c0.3,0.1,0.5,0.3,0.6,0.4s0.1,0.4,0.1,0.6c0,0.1,0,0.3,0,0.5c0,0.2,0,0.4-0.1,0.7
		c0,0.2,0,0.5,0,0.7c0,0.2,0,0.4,0,0.5l-0.1,36.1c0,0.7,0,1.4-0.1,2.1c-0.1,0.7-0.1,1.4-0.2,2c-0.1,0.6-0.2,1.2-0.4,1.7
		s-0.3,0.9-0.5,1.2h-1.5c-0.3-0.5-0.4-1.2-0.5-2.2c-0.1-1-0.1-2-0.1-3V44l-5.8,0.1c-0.5,0-1,0.1-1.5,0.2c-0.5,0.2-0.9,0.2-1.2,0.2
		c-0.2,0-0.5-0.1-0.9-0.2c-0.4-0.1-0.8-0.3-1.2-0.5c-0.4-0.2-0.8-0.4-1.1-0.5c-0.3-0.2-0.6-0.3-0.8-0.5c0-0.3,0.1-0.6,0.1-0.9
		c0.1-0.3,0.2-0.4,0.5-0.4c0.1,0,0.3,0,0.8,0.1c0.5,0,1,0.1,1.7,0.1c0.6,0,1.3,0,2,0.1c0.7,0,1.2,0,1.6,0l5.8-0.1v-27
		c0-0.3-0.1-0.6-0.2-0.8c-0.1-0.2-0.3-0.3-0.4-0.5l-2.7-1.8c0-0.4,0.1-0.8,0.4-1.2c0.3-0.4,0.5-0.5,0.7-0.5c0.2,0,0.6,0.1,1.1,0.2
		c0.5,0.1,1,0.3,1.5,0.4c0.5,0.2,1,0.3,1.5,0.5C53.5,11.2,53.9,11.3,54,11.5z"/>
</g>
<g class="st0">
	<path class="st1" d="M179.8,17.7c0.5,0.1,0.8,0.4,0.8,0.8c0,0.2-0.1,0.4-0.2,0.6c-0.1,0.3-0.2,0.5-0.3,0.8c-1.1,3.6-2.5,7-4.2,10
		c-1.7,3-3.6,5.7-5.7,7.9c-2.1,2.2-4.3,4.1-6.5,5.5s-4.5,2.4-6.7,2.9c-0.1,0-0.3-0.1-0.5-0.2c-0.2-0.2-0.5-0.3-0.7-0.5
		c-0.2-0.2-0.3-0.4-0.4-0.6c-0.1-0.2,0-0.3,0.3-0.4c1.3-0.4,2.6-1,4.1-1.9s2.9-1.9,4.4-3.2c1.4-1.2,2.9-2.7,4.2-4.3
		c1.4-1.6,2.6-3.4,3.8-5.3l-9.2,0.8c-0.3,0-0.6,0.1-1.1,0.2c-0.5,0.1-0.8,0.2-1.1,0.2c-0.4,0-0.8-0.1-1.3-0.2
		c-0.5-0.1-1-0.3-1.4-0.5c-0.5-0.2-0.9-0.4-1.3-0.6c-0.4-0.2-0.6-0.3-0.8-0.4c0-0.2,0-0.4,0.1-0.8c0.1-0.3,0.2-0.5,0.3-0.5
		c0.3,0,0.7,0,1.2,0s1,0,1.6,0c0.5,0,1.1,0,1.6,0s0.9,0,1.2-0.1l11.6-0.9c1.1-2.3,2-4.7,2.6-7.2h-10.5c-0.2,0-0.4,0-0.6,0.1
		s-0.5,0.1-0.8,0.2c-0.3,0.1-0.5,0.1-0.8,0.2c-0.2,0.1-0.4,0.1-0.6,0.1c-0.3,0-0.6-0.1-1.1-0.2c-0.5-0.1-0.9-0.3-1.4-0.5
		c-0.5-0.2-0.9-0.4-1.3-0.5c-0.4-0.2-0.7-0.3-0.8-0.4c0-0.4,0-0.8,0.1-1.2c0.1-0.3,0.2-0.5,0.4-0.5c0,0,0.3,0,0.8,0
		c0.5,0,1,0.1,1.7,0.1c0.6,0,1.3,0.1,1.9,0.1c0.6,0,1.1,0,1.5,0h9.9c0.5,0,0.9-0.1,1.4-0.2c0.5-0.2,0.9-0.2,1.3-0.2
		c0.3,0,0.8,0,1.3,0.1C179.2,17.5,179.6,17.6,179.8,17.7z M191.5,11.5c0.3,0.1,0.5,0.3,0.5,0.4c0.1,0.2,0.2,0.4,0.2,0.6
		c0,0.1,0,0.3,0,0.5s0,0.4,0,0.7s0,0.5,0,0.7c0,0.2,0,0.4,0,0.5L192,51.1c0,0.7,0,1.4-0.1,2.1c-0.1,0.7-0.2,1.4-0.2,2
		c-0.1,0.6-0.2,1.2-0.4,1.7c-0.2,0.5-0.3,0.9-0.5,1.2h-1.5c-0.3-0.5-0.4-1.2-0.5-2.2s-0.1-2-0.1-3v-38c0-0.3-0.1-0.6-0.2-0.8
		c-0.1-0.2-0.3-0.3-0.5-0.5l-2.7-1.8c0-0.4,0.1-0.8,0.4-1.2c0.3-0.4,0.5-0.5,0.7-0.5c0.2,0,0.6,0.1,1.1,0.2c0.5,0.1,1,0.3,1.5,0.4
		c0.5,0.2,1,0.3,1.5,0.5C191,11.2,191.3,11.3,191.5,11.5z"/>
</g>
<g class="st0">
	<path class="st1" d="M146,11.5c0.3,0.1,0.5,0.3,0.5,0.4c0.1,0.2,0.2,0.4,0.2,0.6c0,0.1,0,0.3,0,0.5s0,0.4,0,0.7s0,0.5,0,0.7
		c0,0.2,0,0.4,0,0.5l-0.1,36.1c0,0.7,0,1.4-0.1,2.1c-0.1,0.7-0.2,1.4-0.2,2c-0.1,0.6-0.2,1.2-0.4,1.7c-0.2,0.5-0.3,0.9-0.5,1.2h-1.5
		c-0.3-0.5-0.4-1.2-0.5-2.2s-0.1-2-0.1-3V37.5c-2.2,0.5-4.7,0.9-7.5,1.2c-2.8,0.3-5.6,0.6-8.4,0.8V47c0,2.2-0.2,4.1-0.7,5.7
		c-0.5,1.6-1,2.8-1.7,3.6L123,56c0.1-0.4,0.2-1,0.3-1.7c0.1-0.7,0.1-1.5,0.2-2.2c0-0.8,0.1-1.6,0.1-2.5c0-0.8,0-1.6,0-2.4v-7.4
		l-6.3,0.3c-1.1,0.1-1.9,0.2-2.5,0.3c-0.6,0.1-1.2,0.2-1.8,0.2c-0.2,0-0.5-0.1-1-0.2c-0.4-0.1-0.9-0.3-1.4-0.5
		c-0.5-0.2-1-0.4-1.5-0.6c-0.5-0.2-0.8-0.4-1-0.5c0-0.5,0.1-0.9,0.2-1.2c0.2-0.3,0.3-0.5,0.5-0.5c0.1,0,0.3,0,0.7,0.1
		c0.4,0.1,0.8,0.1,1.3,0.2s1,0.1,1.5,0.2c0.5,0,0.9,0.1,1.2,0.1c0.1,0,0.3,0,0.5,0c0.3,0,0.6,0,1,0c0.4,0,0.8,0,1.1,0
		c0.4,0,0.8,0,1.1,0c1.6-0.1,3.6-0.2,5.8-0.3s4.5-0.3,6.9-0.5c2.3-0.2,4.7-0.4,6.9-0.7c2.3-0.3,4.3-0.6,6.1-1V14.8
		c0-0.3-0.1-0.6-0.2-0.8c-0.1-0.2-0.3-0.3-0.5-0.5l-2.7-1.8c0-0.4,0.1-0.8,0.4-1.2c0.3-0.4,0.5-0.5,0.7-0.5c0.2,0,0.6,0.1,1.1,0.2
		c0.5,0.1,1,0.3,1.5,0.4c0.5,0.2,1,0.3,1.5,0.5C145.5,11.2,145.8,11.3,146,11.5z M125,31.8c-1.6,0-3.1-0.2-4.4-0.7
		c-1.3-0.5-2.4-1.1-3.4-1.9s-1.6-1.8-2.1-2.9c-0.5-1.1-0.8-2.4-0.8-3.8s0.2-2.7,0.8-3.8c0.5-1.1,1.2-2.1,2.1-2.9s2-1.4,3.4-1.9
		c1.3-0.5,2.8-0.7,4.4-0.7c1.6,0,3.1,0.2,4.4,0.7c1.3,0.5,2.4,1.1,3.3,1.9c0.9,0.8,1.7,1.8,2.2,2.9c0.5,1.1,0.8,2.4,0.8,3.8
		s-0.2,2.7-0.8,3.8c-0.5,1.1-1.2,2.1-2.2,2.9c-0.9,0.8-2,1.4-3.3,1.9C128.1,31.5,126.6,31.8,125,31.8z M125,15.9
		c-1.1,0-2.1,0.2-3,0.5c-0.9,0.3-1.7,0.8-2.4,1.3c-0.6,0.6-1.2,1.3-1.5,2.1c-0.4,0.8-0.6,1.7-0.6,2.7s0.2,1.9,0.6,2.7
		c0.4,0.8,0.9,1.5,1.5,2.1c0.7,0.6,1.4,1,2.4,1.3c0.9,0.3,1.9,0.5,3,0.5c1.1,0,2.1-0.2,3-0.5c0.9-0.3,1.7-0.8,2.4-1.3
		c0.6-0.6,1.2-1.3,1.5-2.1c0.4-0.8,0.6-1.7,0.6-2.7s-0.2-1.9-0.6-2.7s-0.9-1.5-1.5-2.1c-0.7-0.6-1.4-1-2.4-1.3
		C127.1,16.1,126.1,15.9,125,15.9z"/>
</g>
<g class="st0">
	<path class="st1" d="M72.2,49.7c-0.4,0-0.8,0-1.3,0.1c-0.5,0.1-1,0.2-1.5,0.2c-0.5,0.1-0.9,0.2-1.2,0.2c-0.4,0.1-0.6,0.1-0.8,0.1
		c-0.3,0-0.7-0.1-1.2-0.2c-0.5-0.1-1.1-0.3-1.7-0.5c-0.6-0.2-1.1-0.4-1.7-0.7c-0.5-0.2-0.9-0.4-1.2-0.5c0-0.5,0.1-0.9,0.2-1.3
		c0.1-0.3,0.3-0.5,0.6-0.5c0.5,0,1.6,0.1,3.4,0.2s3.9,0.2,6.4,0.2h25.2c0.5,0,1,0,1.5-0.1c0.5-0.1,1.1-0.2,1.6-0.2
		c0.5-0.1,1-0.2,1.4-0.2c0.4-0.1,0.8-0.1,1-0.1c0.8,0,1.5,0.1,2.2,0.2c0.7,0.2,1.1,0.4,1.3,0.6c0.2,0.3,0.2,0.7,0.2,1.2
		s-0.1,0.9-0.2,1.2H72.2z M75.9,38.3c-1.5,0-2.7-0.3-3.5-1c-0.8-0.7-1.2-1.7-1.2-3.1L71,19.1c0-0.4-0.2-0.8-0.5-1.1
		c-0.1-0.1-0.3-0.2-0.6-0.4c-0.4-0.2-0.8-0.4-1.2-0.6c0-0.3,0-0.7,0.2-1.2c0.2-0.4,0.4-0.6,0.6-0.6c0.2,0,0.5,0,1,0
		c0.4,0,0.9,0.1,1.4,0.1c0.5,0,1,0.1,1.4,0.1c0.5,0.1,0.8,0.1,1.1,0.1H91c0.3,0,0.6,0,0.8-0.1c0.2-0.1,0.5-0.2,0.7-0.2
		c0.2-0.1,0.5-0.2,0.8-0.2c0.3-0.1,0.6-0.1,1-0.1c0.4,0,0.9,0,1.6,0.1c0.7,0,1.3,0.1,1.6,0.2c0.2,0.1,0.4,0.2,0.5,0.5
		c0.1,0.3,0.1,0.6,0.1,0.9s-0.1,0.6-0.2,0.9c-0.1,0.3-0.3,0.5-0.5,0.6H74.5v7.8h15.9c0.7,0,1.2-0.1,1.7-0.3s0.9-0.3,1.4-0.3
		c0.7,0,1.3,0,1.9,0s1,0,1.3,0.2c0.2,0.1,0.3,0.2,0.4,0.5s0.1,0.5,0.1,0.8c0,0.3-0.1,0.6-0.2,0.8c-0.1,0.3-0.3,0.5-0.5,0.6h-22v6.1
		c0,0.6,0.2,1.1,0.5,1.3c0.3,0.2,0.8,0.3,1.3,0.3h15.1c0.4,0,0.7,0,0.9-0.1c0.3-0.1,0.5-0.1,0.8-0.2c0.2-0.1,0.5-0.2,0.7-0.2
		c0.2-0.1,0.5-0.1,0.8-0.1c0.2,0,0.4,0,0.7,0c0.3,0,0.6,0,1,0c0.3,0,0.6,0.1,0.9,0.1c0.3,0,0.6,0.1,0.8,0.1c0.2,0.1,0.4,0.2,0.5,0.5
		c0.1,0.3,0.1,0.5,0.1,0.8c0,0.3-0.1,0.6-0.2,0.9s-0.2,0.5-0.4,0.6c-0.3,0-0.7,0-1.2,0c-0.5,0-1,0-1.6,0s-1.2,0-1.9,0
		c-0.7,0-1.3,0-1.9,0L75.9,38.3z"/>
</g>
<g class="st0">
	<path class="st2" d="M100.6,17.6c0.9-0.6,1.5-1.2,1.9-1.9c0.4-0.7,0.4-1.4,0.2-2.1c-0.1-0.3-0.4-0.5-0.8-0.6
		c-0.4-0.1-0.8-0.3-1.3-0.5c0-0.2,0-0.5,0.1-0.7c0.1-0.2,0.1-0.5,0.3-0.7c0.1-0.2,0.3-0.4,0.5-0.5c0.2-0.1,0.5-0.2,0.8-0.2
		c0.3,0,0.6,0.1,0.8,0.2c0.2,0.1,0.4,0.3,0.6,0.4c0.2,0.2,0.3,0.4,0.4,0.6c0.1,0.2,0.2,0.5,0.2,0.7c0.1,0.4,0.2,0.9,0.2,1.5
		c0,0.5-0.2,1.1-0.4,1.6c-0.2,0.5-0.6,1.1-1,1.6c-0.5,0.5-1.1,1-1.8,1.4c-0.3-0.1-0.5-0.2-0.6-0.4C100.5,17.8,100.5,17.7,100.6,17.6
		z M106,17.6c0.9-0.6,1.5-1.2,1.9-1.9c0.4-0.7,0.4-1.4,0.2-2.1c-0.1-0.3-0.4-0.5-0.8-0.6c-0.4-0.1-0.8-0.3-1.3-0.5
		c0-0.2,0-0.5,0.1-0.7c0.1-0.2,0.1-0.5,0.3-0.7c0.1-0.2,0.3-0.4,0.5-0.5c0.2-0.1,0.5-0.2,0.8-0.2s0.6,0.1,0.8,0.2s0.4,0.3,0.6,0.4
		c0.2,0.2,0.3,0.4,0.4,0.6c0.1,0.2,0.2,0.5,0.2,0.7c0.1,0.4,0.2,0.9,0.2,1.5c0,0.5-0.2,1.1-0.4,1.6c-0.2,0.5-0.6,1.1-1,1.6
		c-0.5,0.5-1,1-1.8,1.4c-0.3-0.1-0.5-0.2-0.6-0.4C105.9,17.8,105.9,17.7,106,17.6z"/>
</g>
<g class="st0">
	<path class="st2" d="M12,11.9c-0.9,0.6-1.5,1.2-1.9,1.9c-0.4,0.7-0.4,1.4-0.2,2.1c0.1,0.2,0.4,0.4,0.8,0.6s0.8,0.3,1.3,0.5
		c0,0.2,0,0.5-0.1,0.7c-0.1,0.2-0.1,0.5-0.3,0.7c-0.1,0.2-0.3,0.4-0.5,0.5C10.9,19,10.6,19,10.3,19c-0.6,0-1.1-0.2-1.4-0.6
		s-0.5-0.8-0.6-1.3c-0.1-0.4-0.2-0.9-0.2-1.5c0-0.5,0.2-1.1,0.4-1.6c0.2-0.5,0.6-1.1,1-1.6c0.5-0.5,1-1,1.8-1.4
		c0.3,0.1,0.5,0.2,0.6,0.4C12.1,11.7,12.1,11.8,12,11.9z M13.7,17.1c-0.1-0.4-0.2-0.9-0.1-1.5c0-0.5,0.2-1.1,0.4-1.6
		c0.2-0.5,0.6-1.1,1-1.6c0.5-0.5,1.1-1,1.8-1.4c0.3,0.1,0.5,0.2,0.6,0.4c0.1,0.2,0.1,0.4,0,0.5c-0.9,0.6-1.5,1.2-1.9,1.9
		c-0.4,0.7-0.4,1.4-0.2,2.1c0.1,0.2,0.4,0.4,0.8,0.6c0.4,0.1,0.8,0.3,1.3,0.5c0,0.2,0,0.5-0.1,0.7c-0.1,0.2-0.1,0.5-0.3,0.7
		c-0.1,0.2-0.3,0.4-0.5,0.5C16.2,19,15.9,19,15.6,19c-0.6,0-1.1-0.2-1.4-0.6S13.8,17.6,13.7,17.1z"/>
</g>
</svg>
